MoBL_ARMS_module2_4_allmuscles elbow_states	
version=1	
nRows=168	
nColumns=2	
inDegrees=yes	
	
# SIMM Motion File Header:	
name MoBL_ARMS_module2_4_allmuscles elbow_states	
datacolumns 2	
datarows 168	
otherdata 1	
range 1.647500933 2.021923607	
endheader	
time	elbow_flexion
1.647500933	83.68828314
1.650090947	83.52395079
1.652680962	83.35853901
1.654571661	83.23709348
1.656462361	83.11505075
1.659052368	82.94688424
1.661642376	82.7775636
1.663533083	82.65322198
1.66542379	82.5282527
1.668013789	82.3560373
1.670603788	82.18263079
1.672494494	82.05528919
1.6743852	81.92730998
1.6769752	81.75096113
1.6795652	81.57341642
1.681455908	81.44305508
1.683346616	81.31205981
1.685936615	81.13158704
1.688526615	80.94992375
1.69041732	80.81655362
1.692308024	80.68254127
1.694898028	80.49791307
1.697488033	80.31206361
1.699378737	80.17561667
1.701269441	80.03850781
1.703859445	79.84959819
1.706449449	79.65940254
1.708340154	79.51972718
1.710230859	79.37933344
1.712820847	79.18582356
1.715410835	78.99090509
1.71730156	78.84770226
1.719192284	78.70371435
1.721782199	78.50517364
1.724372114	78.30507948
1.726262905	78.15799042
1.728153696	78.01002996
1.73074361	77.8059155
1.733333524	77.60009127
1.735224214	77.44872972
1.737114904	77.29641378
1.739704944	77.08617373
1.742294983	76.87406025
1.744185671	76.71801237
1.746076359	76.56092626
1.748666379	76.34402143
1.7512564	76.12509222
1.753147108	75.9639683
1.755037816	75.80172062
1.757627801	75.57760799
1.760217786	75.351307
1.762108508	75.18469834
1.763999231	75.01688512
1.766589213	74.78502378
1.769179194	74.55083045
1.7710699	74.37837171
1.772960606	74.20463366
1.775550612	73.96453517
1.778140617	73.72197905
1.780031319	73.54334572
1.781922021	73.36337893
1.784512027	73.11466867
1.787102034	72.86341916
1.788992739	72.67839169
1.790883444	72.49199188
1.793473447	72.23440881
1.79606345	71.97422033
1.797954155	71.78263017
1.79984486	71.58964171
1.802434832	71.32300114
1.805024803	71.05371261
1.806915549	70.85544229
1.808806296	70.655744
1.811396252	70.37986597
1.813986208	70.10127988
1.815876911	69.89619081
1.817767613	69.6896477
1.820357627	69.40434473
1.822947642	69.11630005
1.82483834	68.90429213
1.826729037	68.69081284
1.829319048	68.39597522
1.831909059	68.09835148
1.833799764	67.87931933
1.83569047	67.6587911
1.838280472	67.35426344
1.840870473	67.04691219
1.842761179	66.82075613
1.844651885	66.59308604
1.847241886	66.27874757
1.849831888	65.96155997
1.851722593	65.72821406
1.853613299	65.49335248
1.856203301	65.1691704
1.858793302	64.84216084
1.860684008	64.60166601
1.862574714	64.35967912
1.865164715	64.02579534
1.867754716	63.68921123
1.869645423	63.44184777
1.871536129	63.19311592
1.87412613	62.8502041
1.876716131	62.50480835
1.878606836	62.25112468
1.880497542	61.99615665
1.883087544	61.6448335
1.885677545	61.2911808
1.887568251	61.03157129
1.889458957	60.77076791
1.892048941	60.41160966
1.894638925	60.05031703
1.896529654	59.78525967
1.898420382	59.51913038
1.901010359	59.15289283
1.903600335	58.7847787
1.905491038	58.51491375
1.907381742	58.24412435
1.90997175	57.87174291
1.912561759	57.49778994
1.914452186	57.22391244
1.916342613	56.9493031
1.918933455	56.5718592
1.921524296	56.19327677
1.92341456	55.91642241
1.925304823	55.63908576
1.927894673	55.25843051
1.930484523	54.87715515
1.932376097	54.59840114
1.934267671	54.31950107
1.9368454	53.9393371
1.93942313	53.55921766
1.941328531	53.27834599
1.943233932	52.99760909
1.945809303	52.6184374
1.948384674	52.23965983
1.950272709	51.96227464
1.952160745	51.68518364
1.954756816	51.30472012
1.957352887	50.92494917
1.959241262	50.64917641
1.961129637	50.37382598
1.963721418	49.99663528
1.966313198	49.62032743
1.968204769	49.34626733
1.970096341	49.07271907
1.972673079	48.70095576
1.975249817	48.33029613
1.977156384	48.05683928
1.979062952	47.78414489
1.981627221	47.41872236
1.98419149	47.05500363
1.986092371	46.78657115
1.987993251	46.51923919
1.990576554	46.1579592
1.993159856	45.79936782
1.995045394	45.53955173
1.996930932	45.28151217
1.999529331	44.92903762
2.002127729	44.5803949
2.004016719	44.32947992
2.005905709	44.08082943
2.008496364	43.74372454
2.011087019	43.41143747
2.012978942	43.17199409
2.014870865	42.93537666
2.017438077	42.6189519
2.020005289	42.3080229
2.021923607	42.07936403
